<svg xmlns="http://www.w3.org/2000/svg" xmlns:xlink="http://www.w3.org/1999/xlink" xmlns:lucid="lucid" width="1323.2" height="1870.4"><g transform="translate(0 0)" lucid:page-tab-id="0_0"><path d="M0 0h1323.2v1870.4H0z" fill="#fff"/><path d="M688 80c17.67 0 32 13.43 32 30s-14.33 30-32 30h-96c-17.67 0-32-13.43-32-30s14.33-30 32-30z" stroke="#000" stroke-width="2" fill="#fff"/><use xlink:href="#a" transform="matrix(1,0,0,1,565,85) translate(20.674999999999997 28.6)"/><path d="M560 180h160v60H560z" stroke="#000" stroke-width="2" fill="#fff"/><use xlink:href="#b" transform="matrix(1,0,0,1,565,185) translate(18.049999999999997 17.799999999999997)"/><use xlink:href="#c" transform="matrix(1,0,0,1,565,185) translate(67 17.799999999999997)"/><use xlink:href="#d" transform="matrix(1,0,0,1,565,185) translate(106.95 17.799999999999997)"/><use xlink:href="#e" transform="matrix(1,0,0,1,565,185) translate(40.575 39.4)"/><path d="M640 141v19.76" stroke="#000" stroke-width="2" fill="none"/><path d="M641 141h-2v-1h2zM640 175.76l-4.64-14.26h9.28z"/><path d="M640 179l-6-18.5h12zm-3.26-16.5l3.26 10.03 3.26-10.03z"/><path d="M640 280l100 40-100 40-100-40z" stroke="#000" stroke-width="2" fill="#fff"/><use xlink:href="#f" transform="matrix(1,0,0,1,545,285) translate(25.049999999999997 38.6)"/><use xlink:href="#g" transform="matrix(1,0,0,1,545,285) translate(65 38.6)"/><use xlink:href="#h" transform="matrix(1,0,0,1,545,285) translate(82.95 38.6)"/><path d="M640 241v19.7" stroke="#000" stroke-width="2" fill="none"/><path d="M641 241h-2v-1h2zM640 275.7l-4.64-14.28h9.28z"/><path d="M640 278.92l-6-18.5h12zm-3.26-16.5l3.26 10.03 3.26-10.03zM761 380.76h-2v-19.1h2zm0-40.7h-2V321h-16.3v-2H761zM742.7 321h-3v-.88l.3-.12-.3-.12V319h3zM760 395.76l-4.64-14.26h9.28z"/><path d="M760 399l-6-18.5h12zm-3.26-16.5l3.26 10.03 3.26-10.03z"/><use xlink:href="#i" transform="matrix(1,0,0,1,745.325,340.046291) translate(0 14.4)"/><path d="M680 400h160v60H680z" stroke="#000" stroke-width="2" fill="#fff"/><use xlink:href="#j" transform="matrix(1,0,0,1,685,405) translate(14.574999999999996 17.799999999999997)"/><use xlink:href="#c" transform="matrix(1,0,0,1,685,405) translate(75.475 17.799999999999997)"/><use xlink:href="#k" transform="matrix(1,0,0,1,685,405) translate(115.42500000000001 17.799999999999997)"/><use xlink:href="#l" transform="matrix(1,0,0,1,685,405) translate(57.025 39.4)"/><path d="M680 700h160v74.8H680z" stroke="#000" stroke-width="2" fill="#fff"/><use xlink:href="#j" transform="matrix(1,0,0,1,685,705) translate(4.099999999999994 14.500000000000002)"/><use xlink:href="#m" transform="matrix(1,0,0,1,685,705) translate(65 14.500000000000002)"/><use xlink:href="#n" transform="matrix(1,0,0,1,685,705) translate(130.9 14.500000000000002)"/><use xlink:href="#o" transform="matrix(1,0,0,1,685,705) translate(4.074999999999989 36.1)"/><use xlink:href="#p" transform="matrix(1,0,0,1,685,705) translate(48.02499999999999 36.1)"/><use xlink:href="#q" transform="matrix(1,0,0,1,685,705) translate(130.925 36.1)"/><use xlink:href="#m" transform="matrix(1,0,0,1,685,705) translate(16.099999999999994 57.7)"/><use xlink:href="#r" transform="matrix(1,0,0,1,685,705) translate(82 57.7)"/><use xlink:href="#s" transform="matrix(1,0,0,1,685,705) translate(102 57.7)"/><path d="M760 461v19.76" stroke="#000" stroke-width="2" fill="none"/><path d="M761 461h-2v-1h2zM760 495.76l-4.64-14.26h9.28z"/><path d="M760 499l-6-18.5h12zm-3.26-16.5l3.26 10.03 3.26-10.03z"/><path d="M680 500h160v40H680z" stroke="#000" stroke-width="2" fill="#fff"/><use xlink:href="#t" transform="matrix(1,0,0,1,685,505) translate(14.049999999999997 18.6)"/><use xlink:href="#u" transform="matrix(1,0,0,1,685,505) translate(49.05 18.6)"/><use xlink:href="#v" transform="matrix(1,0,0,1,685,505) translate(84.05 18.6)"/><use xlink:href="#s" transform="matrix(1,0,0,1,685,505) translate(104.05 18.6)"/><path d="M760 560l110 40-110 40-110-40z" stroke="#000" stroke-width="2" fill="#fff"/><use xlink:href="#w" transform="matrix(1,0,0,1,655,565) translate(33.599999999999994 38.6)"/><use xlink:href="#x" transform="matrix(1,0,0,1,655,565) translate(51.55 38.6)"/><use xlink:href="#y" transform="matrix(1,0,0,1,655,565) translate(65.5 38.6)"/><use xlink:href="#z" transform="matrix(1,0,0,1,655,565) translate(80.5 38.6)"/><use xlink:href="#A" transform="matrix(1,0,0,1,655,565) translate(143.5 38.6)"/><path d="M760 541" stroke="#000" stroke-width="2" fill="none"/><path d="M761 541h-2v-1h2zM760 555.7l-4.64-14.27h9.28z"/><path d="M760 558.94l-6-18.5h12zm-3.26-16.5l3.26 10.02 3.26-10.03zM761 680.76h-2v-7.3h2zm0-28.9h-2v-10.8h2zM761 641.06h-2v-1.42l1 .36 1-.36zM760 695.76l-4.64-14.26h9.28z"/><path d="M760 699l-6-18.5h12zm-3.26-16.5l3.26 10.03 3.26-10.03z"/><use xlink:href="#i" transform="matrix(1,0,0,1,745.325,651.8666666666667) translate(0 14.4)"/><path d="M760 834.8l90 42.6-90 42.6-90-42.6z" stroke="#000" stroke-width="2" fill="#fff"/><use xlink:href="#f" transform="matrix(1,0,0,1,675,839.8) translate(31.049999999999997 30.799999999999997)"/><use xlink:href="#B" transform="matrix(1,0,0,1,675,839.8) translate(71 30.799999999999997)"/><use xlink:href="#C" transform="matrix(1,0,0,1,675,839.8) translate(119.95 30.799999999999997)"/><use xlink:href="#D" transform="matrix(1,0,0,1,675,839.8) translate(26.074999999999996 52.4)"/><use xlink:href="#E" transform="matrix(1,0,0,1,675,839.8) translate(98.975 52.4)"/><path d="M760 775.8v39.66" stroke="#000" stroke-width="2" fill="none"/><path d="M761 775.8h-2v-1h2zM760 830.46l-4.64-14.27h9.28z"/><path d="M760 833.7l-6-18.5h12zm-3.26-16.5L760 827.2l3.26-10.03zM670 876.4v2h-39.83v-2zm-90.76 1.6v-2h21.6v2zM670 877.4l2.1 1H670v-2h2.1zM578.5 881.64L564.24 877l14.26-4.64z"/><path d="M579.5 883l-18.5-6 18.5-6zm-12.03-6l10.03 3.26v-6.52z"/><use xlink:href="#i" transform="matrix(1,0,0,1,600.825,866.4000000000001) translate(0 14.4)"/><path d="M400 847h160v60H400z" stroke="#000" stroke-width="2" fill="#fff"/><use xlink:href="#j" transform="matrix(1,0,0,1,405,852) translate(10.574999999999989 17.799999999999997)"/><use xlink:href="#F" transform="matrix(1,0,0,1,405,852) translate(71.475 17.799999999999997)"/><use xlink:href="#C" transform="matrix(1,0,0,1,405,852) translate(120.425 17.799999999999997)"/><use xlink:href="#G" transform="matrix(1,0,0,1,405,852) translate(38.55 39.4)"/><path d="M480 908v52.44" stroke="#000" stroke-width="2" fill="none"/><path d="M481 908h-2v-1h2zM480 975.44l-4.64-14.27h9.28z"/><path d="M480 978.67l-6-18.5h12zm-3.26-16.5L480 972.2l3.26-10.03z"/><path d="M480 980l80 70-80 70-80-70z" stroke="#000" stroke-width="2" fill="#fff"/><use xlink:href="#H" transform="matrix(1,0,0,1,405,985) translate(31.5 57.8)"/><use xlink:href="#I" transform="matrix(1,0,0,1,405,985) translate(74.5 57.8)"/><use xlink:href="#J" transform="matrix(1,0,0,1,405,985) translate(108.5 57.8)"/><use xlink:href="#K" transform="matrix(1,0,0,1,405,985) translate(16.599999999999994 79.4)"/><use xlink:href="#L" transform="matrix(1,0,0,1,405,985) translate(94.5 79.4)"/><path d="M315.07 1051h-35.83v-2h35.83zm83.4 0h-54.05v-2h54.06z"/><path d="M400 1050l1.14 1h-2.66v-2h2.66zM278.5 1054.64l-14.26-4.64 14.26-4.64z"/><path d="M279.5 1056l-18.5-6 18.5-6zm-12.03-6l10.03 3.26v-6.52z"/><use xlink:href="#i" transform="matrix(1,0,0,1,315.065704,1039.2) translate(0 14.4)"/><path d="M120 1015h140v70H120z" stroke="#000" stroke-width="2" fill="#fff"/><use xlink:href="#M" transform="matrix(1,0,0,1,125,1020) translate(17.074999999999996 22.799999999999997)"/><use xlink:href="#N" transform="matrix(1,0,0,1,125,1020) translate(52.074999999999996 22.799999999999997)"/><use xlink:href="#O" transform="matrix(1,0,0,1,125,1020) translate(42.525 44.4)"/><path d="M618 1600c17.67 0 32 17.9 32 40s-14.33 40-32 40h-96c-17.67 0-32-17.9-32-40s14.33-40 32-40z" stroke="#000" stroke-width="2" fill="#fff"/><use xlink:href="#P" transform="matrix(1,0,0,1,495,1605) translate(51.55 38.6)"/><path d="M71 1644.4h400.13v2H69V969.54h2zM537.3 321H71v626.93h-2V319h468.3zM540.3 319.88l-.3.12.3.12v.88h-3v-2h3zM486.13 1645.4l-14.27 4.65v-9.27z"/><path d="M489.36 1645.4l-18.5 6.02v-12.02zm-16.5 3.27l10.03-3.26-10.04-3.25z"/><use xlink:href="#Q" transform="matrix(1,0,0,1,58.525,947.933704605876) translate(0 14.4)"/><path d="M190 1086v264h380v230.76" stroke="#000" stroke-width="2" fill="none"/><path d="M191 1086h-2v-1h2zM570 1595.76l-4.64-14.26h9.28z"/><path d="M570 1599l-6-18.5h12zm-3.26-16.5l3.26 10.03 3.26-10.03zM570.96 1051h-9.44v-2h9.44zm30.8 0h-7.85v-2h7.86zM561.52 1051h-2.66l1.14-1-1.14-1h2.66zM616.76 1050l-14.26 4.64v-9.28z"/><path d="M620 1050l-18.5 6v-12zm-16.5 3.26l10.03-3.26-10.03-3.26z"/><use xlink:href="#Q" transform="matrix(1,0,0,1,570.9640139805671,1039.2) translate(0 14.4)"/><path d="M730 1002.5l110 47.5-110 47.5-110-47.5z" stroke="#000" stroke-width="2" fill="#fff"/><use xlink:href="#R" transform="matrix(1,0,0,1,625,1007.5) translate(21.625 46.1)"/><use xlink:href="#m" transform="matrix(1,0,0,1,625,1007.5) translate(60.575 46.1)"/><use xlink:href="#r" transform="matrix(1,0,0,1,625,1007.5) translate(126.47500000000001 46.1)"/><use xlink:href="#S" transform="matrix(1,0,0,1,625,1007.5) translate(146.47500000000002 46.1)"/><path d="M733.35 1140.76h-2v-1.38h2zm-3.35-22.98h-2v-19.62h2zM730 1097.5v.66h-2v-1.52zM732.35 1155.76l-4.63-14.26H737z"/><path d="M732.35 1159l-6-18.5h12.02zm-3.26-16.5l3.25 10.03 3.26-10.03z"/><use xlink:href="#i" transform="matrix(1,0,0,1,716.0017062020539,1117.7787164071722) translate(0 14.4)"/><path d="M670 1160h120v60H670z" stroke="#000" stroke-width="2" fill="#fff"/><use xlink:href="#M" transform="matrix(1,0,0,1,675,1165) translate(9.049999999999997 17.799999999999997)"/><use xlink:href="#T" transform="matrix(1,0,0,1,675,1165) translate(44.05 17.799999999999997)"/><use xlink:href="#U" transform="matrix(1,0,0,1,675,1165) translate(32.525 39.4)"/><path d="M730 1221v129H570v230.76" stroke="#000" stroke-width="2" fill="none"/><path d="M731 1221h-2v-1h2zM570 1595.76l-4.64-14.26h9.28z"/><path d="M570 1599l-6-18.5h12zm-3.26-16.5l3.26 10.03 3.26-10.03z"/><path d="M960 851.8h160V900H960z" stroke="#000" stroke-width="2" fill="#fff"/><use xlink:href="#j" transform="matrix(1,0,0,1,965,856.8) translate(29.549999999999997 14.4)"/><use xlink:href="#V" transform="matrix(1,0,0,1,965,856.8) translate(90.45 14.4)"/><use xlink:href="#K" transform="matrix(1,0,0,1,965,856.8) translate(21.099999999999994 36)"/><use xlink:href="#W" transform="matrix(1,0,0,1,965,856.8) translate(99 36)"/><path d="M894.2 878.4h-41.86v-2h41.85zm46.56-1.34h-23.62v-2h23.62zM852.34 878.4h-3v-.7l.66-.3-.66-.3v-.7h3zM955.76 876.06l-14.26 4.64v-9.27z"/><path d="M959 876.06l-18.5 6v-12zm-16.5 3.26l10.03-3.26-10.03-3.26z"/><use xlink:href="#Q" transform="matrix(1,0,0,1,894.1936959999999,865.9303333333332) translate(0 14.4)"/><path d="M861 1641H669.24v-2H859v-435.7h2zm0-459.3h-2V1051h-16.48v-2H861zM842.52 1051h-3v-.8l.48-.2-.48-.2v-.8h3zM668.5 1644.64l-14.26-4.64 14.26-4.64z"/><path d="M669.5 1646l-18.5-6 18.5-6zm-12.03-6l10.03 3.26v-6.52z"/><g><use xlink:href="#Q" transform="matrix(1,0,0,1,848.525,1181.695675899139) translate(0 14.4)"/></g><path d="M1040 940l110 47.5-110 47.5-110-47.5z" stroke="#000" stroke-width="2" fill="#fff"/><g><use xlink:href="#R" transform="matrix(1,0,0,1,935,945) translate(21.625 46.1)"/><use xlink:href="#m" transform="matrix(1,0,0,1,935,945) translate(60.575 46.1)"/><use xlink:href="#r" transform="matrix(1,0,0,1,935,945) translate(126.47500000000001 46.1)"/><use xlink:href="#S" transform="matrix(1,0,0,1,935,945) translate(146.47500000000002 46.1)"/></g><path d="M1040 901v19.67" stroke="#000" stroke-width="2" fill="none"/><path d="M1041 901h-2v-1h2zM1040 935.67l-4.64-14.26h9.28z"/><path d="M1040 938.9l-6-18.5h12zm-3.26-16.5l3.26 10.04 3.26-10.03zM1041 1100.76h-2v-24.64h2zm0-46.24h-2v-18.43h2z"/><path d="M1041 1036.1h-2v-1.53l1 .43 1-.43zM1040 1115.76l-4.64-14.26h9.28z"/><path d="M1040 1119l-6-18.5h12zm-3.26-16.5l3.26 10.03 3.26-10.03z"/><g><use xlink:href="#i" transform="matrix(1,0,0,1,1025.325,1054.521791101237) translate(0 14.4)"/></g><path d="M980 1120h120v60H980z" stroke="#000" stroke-width="2" fill="#fff"/><g><use xlink:href="#M" transform="matrix(1,0,0,1,985,1125) translate(9.049999999999997 17.799999999999997)"/><use xlink:href="#T" transform="matrix(1,0,0,1,985,1125) translate(44.05 17.799999999999997)"/><use xlink:href="#U" transform="matrix(1,0,0,1,985,1125) translate(32.525 39.4)"/></g><path d="M1041 1641H669.24v-2H1039v-458h2zM1041 1181h-2v-1h2zM668.5 1644.64l-14.26-4.64 14.26-4.64z"/><path d="M669.5 1646l-18.5-6 18.5-6zm-12.03-6l10.03 3.26v-6.52z"/><path d="M880 1280h120v60H880z" stroke="#000" stroke-width="2" fill="#fff"/><g><use xlink:href="#X" transform="matrix(1,0,0,1,885,1285) translate(20.525 17.799999999999997)"/><use xlink:href="#V" transform="matrix(1,0,0,1,885,1285) translate(59.475 17.799999999999997)"/><use xlink:href="#K" transform="matrix(1,0,0,1,885,1285) translate(1.0999999999999943 39.4)"/><use xlink:href="#W" transform="matrix(1,0,0,1,885,1285) translate(79 39.4)"/></g><path d="M901 1238h40v22.76h-2V1240h-40v-89.7h2zm26.48-249.5H901v140.2h-2V986.5h28.48zM930.48 987.3l-.48.2.48.2v.8h-3v-2h3zM940 1275.76l-4.64-14.26h9.28z"/><path d="M940 1279l-6-18.5h12zm-3.26-16.5l3.26 10.03 3.26-10.03z"/><g><use xlink:href="#Q" transform="matrix(1,0,0,1,888.525,1128.7112375) translate(0 14.4)"/></g><path d="M940 1341v299H669.24" stroke="#000" stroke-width="2" fill="none"/><path d="M941 1341h-2v-1h2zM668.5 1644.64l-14.26-4.64 14.26-4.64z"/><path d="M669.5 1646l-18.5-6 18.5-6zm-12.03-6l10.03 3.26v-6.52zM1221 615.76h-2V601h-145.53v-2H1221zM870 601v-2h180.53v2zM870 601h-2.75l2.75-1-2.75-1H870zM1220 630.76l-4.64-14.26h9.28z"/><path d="M1220 634l-6-18.5h12zm-3.26-16.5l3.26 10.03 3.26-10.03z"/><g><use xlink:href="#Q" transform="matrix(1,0,0,1,1050.525,589.2) translate(0 14.4)"/></g><path d="M1140 635h160v85h-160z" stroke="#000" stroke-width="2" fill="#fff"/><g><use xlink:href="#Y" transform="matrix(1,0,0,1,1145,640) translate(4.625 30.299999999999997)"/><use xlink:href="#c" transform="matrix(1,0,0,1,1145,640) translate(49.575 30.299999999999997)"/><use xlink:href="#Z" transform="matrix(1,0,0,1,1145,640) translate(89.525 30.299999999999997)"/><use xlink:href="#aa" transform="matrix(1,0,0,1,1145,640) translate(108.47500000000001 30.299999999999997)"/><use xlink:href="#ab" transform="matrix(1,0,0,1,1145,640) translate(45.025 51.9)"/></g><path d="M1221 1641H669.24v-2H1219V721h2zM1221 721h-2v-1h2zM668.5 1644.64l-14.26-4.64 14.26-4.64z"/><path d="M669.5 1646l-18.5-6 18.5-6zm-12.03-6l10.03 3.26v-6.52z"/><defs><path d="M101-234c-31-9-42 10-38 44h38v23H63V0H32v-167H5v-23h27c-7-52 17-82 69-68v24" id="ac"/><path d="M24 0v-261h32V0H24" id="ad"/><path d="M24-231v-30h32v30H24zM24 0v-190h32V0H24" id="ae"/><path d="M115-194c55 1 70 41 70 98S169 2 115 4C84 4 66-9 55-30l1 105H24l-1-265h31l2 30c10-21 28-34 59-34zm-8 174c40 0 45-34 45-75s-6-73-45-74c-42 0-51 32-51 76 0 43 10 73 51 73" id="af"/><path d="M212-179c-10-28-35-45-73-45-59 0-87 40-87 99 0 60 29 101 89 101 43 0 62-24 78-52l27 14C228-24 195 4 139 4 59 4 22-46 18-125c-6-104 99-153 187-111 19 9 31 26 39 46" id="ag"/><path d="M141-36C126-15 110 5 73 4 37 3 15-17 15-53c-1-64 63-63 125-63 3-35-9-54-41-54-24 1-41 7-42 31l-33-3c5-37 33-52 76-52 45 0 72 20 72 64v82c-1 20 7 32 28 27v20c-31 9-61-2-59-35zM48-53c0 20 12 33 32 33 41-3 63-29 60-74-43 2-92-5-92 41" id="ah"/><path d="M114-163C36-179 61-72 57 0H25l-1-190h30c1 12-1 29 2 39 6-27 23-49 58-41v29" id="ai"/><path d="M85-194c31 0 48 13 60 33l-1-100h32l1 261h-30c-2-10 0-23-3-31C134-8 116 4 85 4 32 4 16-35 15-94c0-66 23-100 70-100zm9 24c-40 0-46 34-46 75 0 40 6 74 45 74 42 0 51-32 51-76 0-42-9-74-50-73" id="aj"/><path d="M87 75C49 33 22-17 22-94c0-76 28-126 65-167h31c-38 41-64 92-64 168S80 34 118 75H87" id="ak"/><path d="M96-169c-40 0-48 33-48 73s9 75 48 75c24 0 41-14 43-38l32 2c-6 37-31 61-74 61-59 0-76-41-82-99-10-93 101-131 147-64 4 7 5 14 7 22l-32 3c-4-21-16-35-41-35" id="al"/><path d="M33-261c38 41 65 92 65 168S71 34 33 75H2C39 34 66-17 66-93S39-220 2-261h31" id="am"/><g id="a"><use transform="matrix(0.05,0,0,0.05,0,0)" xlink:href="#ac"/><use transform="matrix(0.05,0,0,0.05,5,0)" xlink:href="#ad"/><use transform="matrix(0.05,0,0,0.05,8.95,0)" xlink:href="#ae"/><use transform="matrix(0.05,0,0,0.05,12.899999999999999,0)" xlink:href="#af"/><use transform="matrix(0.05,0,0,0.05,22.9,0)" xlink:href="#ag"/><use transform="matrix(0.05,0,0,0.05,35.85,0)" xlink:href="#ah"/><use transform="matrix(0.05,0,0,0.05,45.85,0)" xlink:href="#ai"/><use transform="matrix(0.05,0,0,0.05,51.800000000000004,0)" xlink:href="#aj"/><use transform="matrix(0.05,0,0,0.05,61.800000000000004,0)" xlink:href="#ak"/><use transform="matrix(0.05,0,0,0.05,67.75,0)" xlink:href="#al"/><use transform="matrix(0.05,0,0,0.05,76.75,0)" xlink:href="#ah"/><use transform="matrix(0.05,0,0,0.05,86.75,0)" xlink:href="#ai"/><use transform="matrix(0.05,0,0,0.05,92.7,0)" xlink:href="#aj"/><use transform="matrix(0.05,0,0,0.05,102.7,0)" xlink:href="#am"/></g><path d="M210-169c-67 3-38 105-44 169h-31v-121c0-29-5-50-35-48C34-165 62-65 56 0H25l-1-190h30c1 10-1 24 2 32 10-44 99-50 107 0 11-21 27-35 58-36 85-2 47 119 55 194h-31v-121c0-29-5-49-35-48" id="an"/><path d="M143 0L79-87 56-68V0H24v-261h32v163l83-92h37l-77 82L181 0h-38" id="ao"/><path d="M100-194c63 0 86 42 84 106H49c0 40 14 67 53 68 26 1 43-12 49-29l28 8c-11 28-37 45-77 45C44 4 14-33 15-96c1-61 26-98 85-98zm52 81c6-60-76-77-97-28-3 7-6 17-6 28h103" id="ap"/><g id="b"><use transform="matrix(0.05,0,0,0.05,0,0)" xlink:href="#an"/><use transform="matrix(0.05,0,0,0.05,14.950000000000001,0)" xlink:href="#ah"/><use transform="matrix(0.05,0,0,0.05,24.950000000000003,0)" xlink:href="#ao"/><use transform="matrix(0.05,0,0,0.05,33.95,0)" xlink:href="#ap"/></g><g id="c"><use transform="matrix(0.05,0,0,0.05,0,0)" xlink:href="#al"/><use transform="matrix(0.05,0,0,0.05,9,0)" xlink:href="#ah"/><use transform="matrix(0.05,0,0,0.05,19,0)" xlink:href="#ai"/><use transform="matrix(0.05,0,0,0.05,24.95,0)" xlink:href="#aj"/></g><path d="M117-194c89-4 53 116 60 194h-32v-121c0-31-8-49-39-48C34-167 62-67 57 0H25l-1-190h30c1 10-1 24 2 32 11-22 29-35 61-36" id="aq"/><path d="M100-194c62-1 85 37 85 99 1 63-27 99-86 99S16-35 15-95c0-66 28-99 85-99zM99-20c44 1 53-31 53-75 0-43-8-75-51-75s-53 32-53 75 10 74 51 75" id="ar"/><path d="M59-47c-2 24 18 29 38 22v24C64 9 27 4 27-40v-127H5v-23h24l9-43h21v43h35v23H59v120" id="as"/><g id="d"><use transform="matrix(0.05,0,0,0.05,0,0)" xlink:href="#aq"/><use transform="matrix(0.05,0,0,0.05,10,0)" xlink:href="#ar"/><use transform="matrix(0.05,0,0,0.05,20,0)" xlink:href="#as"/></g><path d="M115-194c53 0 69 39 70 98 0 66-23 100-70 100C84 3 66-7 56-30L54 0H23l1-261h32v101c10-23 28-34 59-34zm-8 174c40 0 45-34 45-75 0-40-5-75-45-74-42 0-51 32-51 76 0 43 10 73 51 73" id="at"/><g id="e"><use transform="matrix(0.05,0,0,0.05,0,0)" xlink:href="#al"/><use transform="matrix(0.05,0,0,0.05,9,0)" xlink:href="#ad"/><use transform="matrix(0.05,0,0,0.05,12.949999999999998,0)" xlink:href="#ae"/><use transform="matrix(0.05,0,0,0.05,16.9,0)" xlink:href="#al"/><use transform="matrix(0.05,0,0,0.05,25.899999999999995,0)" xlink:href="#ao"/><use transform="matrix(0.05,0,0,0.05,34.9,0)" xlink:href="#ah"/><use transform="matrix(0.05,0,0,0.05,44.9,0)" xlink:href="#at"/><use transform="matrix(0.05,0,0,0.05,54.900000000000006,0)" xlink:href="#ad"/><use transform="matrix(0.05,0,0,0.05,58.85,0)" xlink:href="#ap"/></g><g id="f"><use transform="matrix(0.05,0,0,0.05,0,0)" xlink:href="#al"/><use transform="matrix(0.05,0,0,0.05,9,0)" xlink:href="#ah"/><use transform="matrix(0.05,0,0,0.05,19,0)" xlink:href="#ai"/><use transform="matrix(0.05,0,0,0.05,24.95,0)" xlink:href="#aj"/></g><path d="M135-143c-3-34-86-38-87 0 15 53 115 12 119 90S17 21 10-45l28-5c4 36 97 45 98 0-10-56-113-15-118-90-4-57 82-63 122-42 12 7 21 19 24 35" id="au"/><g id="g"><use transform="matrix(0.05,0,0,0.05,0,0)" xlink:href="#ae"/><use transform="matrix(0.05,0,0,0.05,3.95,0)" xlink:href="#au"/></g><path d="M103-251c84 0 111 97 45 133-19 10-37 24-39 52H78c0-63 77-55 77-114 0-30-21-42-52-43-32 0-53 17-56 46l-32-2c7-45 34-72 88-72zM77 0v-35h34V0H77" id="av"/><g id="h"><use transform="matrix(0.05,0,0,0.05,0,0)" xlink:href="#at"/><use transform="matrix(0.05,0,0,0.05,10,0)" xlink:href="#ah"/><use transform="matrix(0.05,0,0,0.05,20,0)" xlink:href="#al"/><use transform="matrix(0.05,0,0,0.05,29,0)" xlink:href="#ao"/><use transform="matrix(0.05,0,0,0.05,38,0)" xlink:href="#ac"/><use transform="matrix(0.05,0,0,0.05,43,0)" xlink:href="#ah"/><use transform="matrix(0.05,0,0,0.05,53,0)" xlink:href="#al"/><use transform="matrix(0.05,0,0,0.05,62,0)" xlink:href="#ap"/><use transform="matrix(0.05,0,0,0.05,72,0)" xlink:href="#av"/></g><path d="M137-103V0h-34v-103L8-248h37l75 118 75-118h37" id="aw"/><g id="i"><use transform="matrix(0.05,0,0,0.05,0,0)" xlink:href="#aw"/><use transform="matrix(0.05,0,0,0.05,10.35,0)" xlink:href="#ap"/><use transform="matrix(0.05,0,0,0.05,20.35,0)" xlink:href="#au"/></g><path d="M179-190L93 31C79 59 56 82 12 73V49c39 6 53-20 64-50L1-190h34L92-34l54-156h33" id="ax"/><g id="j"><use transform="matrix(0.05,0,0,0.05,0,0)" xlink:href="#aj"/><use transform="matrix(0.05,0,0,0.05,10,0)" xlink:href="#ae"/><use transform="matrix(0.05,0,0,0.05,13.949999999999998,0)" xlink:href="#au"/><use transform="matrix(0.05,0,0,0.05,22.95,0)" xlink:href="#af"/><use transform="matrix(0.05,0,0,0.05,32.95,0)" xlink:href="#ad"/><use transform="matrix(0.05,0,0,0.05,36.900000000000006,0)" xlink:href="#ah"/><use transform="matrix(0.05,0,0,0.05,46.900000000000006,0)" xlink:href="#ax"/></g><g id="k"><use transform="matrix(0.05,0,0,0.05,0,0)" xlink:href="#ar"/><use transform="matrix(0.05,0,0,0.05,10,0)" xlink:href="#aq"/></g><g id="l"><use transform="matrix(0.05,0,0,0.05,0,0)" xlink:href="#ac"/><use transform="matrix(0.05,0,0,0.05,5,0)" xlink:href="#ai"/><use transform="matrix(0.05,0,0,0.05,10.95,0)" xlink:href="#ar"/><use transform="matrix(0.05,0,0,0.05,20.95,0)" xlink:href="#aq"/><use transform="matrix(0.05,0,0,0.05,30.950000000000003,0)" xlink:href="#as"/></g><path d="M84 4C-5 8 30-112 23-190h32v120c0 31 7 50 39 49 72-2 45-101 50-169h31l1 190h-30c-1-10 1-25-2-33-11 22-28 36-60 37" id="ay"/><g id="m"><use transform="matrix(0.05,0,0,0.05,0,0)" xlink:href="#aq"/><use transform="matrix(0.05,0,0,0.05,10,0)" xlink:href="#ay"/><use transform="matrix(0.05,0,0,0.05,20,0)" xlink:href="#an"/><use transform="matrix(0.05,0,0,0.05,34.95,0)" xlink:href="#at"/><use transform="matrix(0.05,0,0,0.05,44.95,0)" xlink:href="#ap"/><use transform="matrix(0.05,0,0,0.05,54.95,0)" xlink:href="#ai"/></g><g id="n"><use transform="matrix(0.05,0,0,0.05,0,0)" xlink:href="#ar"/><use transform="matrix(0.05,0,0,0.05,10,0)" xlink:href="#ac"/></g><g id="o"><use transform="matrix(0.05,0,0,0.05,0,0)" xlink:href="#au"/><use transform="matrix(0.05,0,0,0.05,9,0)" xlink:href="#as"/><use transform="matrix(0.05,0,0,0.05,14,0)" xlink:href="#ah"/><use transform="matrix(0.05,0,0,0.05,24,0)" xlink:href="#ai"/><use transform="matrix(0.05,0,0,0.05,29.950000000000003,0)" xlink:href="#au"/></g><path d="M177-190C167-65 218 103 67 71c-23-6-38-20-44-43l32-5c15 47 100 32 89-28v-30C133-14 115 1 83 1 29 1 15-40 15-95c0-56 16-97 71-98 29-1 48 16 59 35 1-10 0-23 2-32h30zM94-22c36 0 50-32 50-73 0-42-14-75-50-75-39 0-46 34-46 75s6 73 46 73" id="az"/><g id="p"><use transform="matrix(0.05,0,0,0.05,0,0)" xlink:href="#ah"/><use transform="matrix(0.05,0,0,0.05,10,0)" xlink:href="#al"/><use transform="matrix(0.05,0,0,0.05,19,0)" xlink:href="#al"/><use transform="matrix(0.05,0,0,0.05,28,0)" xlink:href="#ar"/><use transform="matrix(0.05,0,0,0.05,38,0)" xlink:href="#ai"/><use transform="matrix(0.05,0,0,0.05,43.95,0)" xlink:href="#aj"/><use transform="matrix(0.05,0,0,0.05,53.95,0)" xlink:href="#ae"/><use transform="matrix(0.05,0,0,0.05,57.900000000000006,0)" xlink:href="#aq"/><use transform="matrix(0.05,0,0,0.05,67.9,0)" xlink:href="#az"/></g><g id="q"><use transform="matrix(0.05,0,0,0.05,0,0)" xlink:href="#as"/><use transform="matrix(0.05,0,0,0.05,5,0)" xlink:href="#ar"/></g><g id="r"><use transform="matrix(0.05,0,0,0.05,0,0)" xlink:href="#ar"/><use transform="matrix(0.05,0,0,0.05,10,0)" xlink:href="#ac"/></g><g id="s"><use transform="matrix(0.05,0,0,0.05,0,0)" xlink:href="#ac"/><use transform="matrix(0.05,0,0,0.05,5,0)" xlink:href="#ad"/><use transform="matrix(0.05,0,0,0.05,8.95,0)" xlink:href="#ae"/><use transform="matrix(0.05,0,0,0.05,12.899999999999999,0)" xlink:href="#af"/><use transform="matrix(0.05,0,0,0.05,22.9,0)" xlink:href="#au"/></g><g id="t"><use transform="matrix(0.05,0,0,0.05,0,0)" xlink:href="#ah"/><use transform="matrix(0.05,0,0,0.05,10,0)" xlink:href="#aj"/><use transform="matrix(0.05,0,0,0.05,20,0)" xlink:href="#aj"/></g><g id="u"><use transform="matrix(0.05,0,0,0.05,0,0)" xlink:href="#ar"/><use transform="matrix(0.05,0,0,0.05,10,0)" xlink:href="#aq"/><use transform="matrix(0.05,0,0,0.05,20,0)" xlink:href="#ap"/></g><g id="v"><use transform="matrix(0.05,0,0,0.05,0,0)" xlink:href="#as"/><use transform="matrix(0.05,0,0,0.05,5,0)" xlink:href="#ar"/></g><g id="w"><use transform="matrix(0.05,0,0,0.05,0,0)" xlink:href="#ae"/><use transform="matrix(0.05,0,0,0.05,3.95,0)" xlink:href="#au"/></g><g id="x"><use transform="matrix(0.05,0,0,0.05,0,0)" xlink:href="#ae"/><use transform="matrix(0.05,0,0,0.05,3.95,0)" xlink:href="#as"/></g><use transform="matrix(0.05,0,0,0.05,0,0)" xlink:href="#ah" id="y"/><g id="z"><use transform="matrix(0.05,0,0,0.05,0,0)" xlink:href="#au"/><use transform="matrix(0.05,0,0,0.05,9,0)" xlink:href="#ap"/><use transform="matrix(0.05,0,0,0.05,19,0)" xlink:href="#al"/><use transform="matrix(0.05,0,0,0.05,28,0)" xlink:href="#ar"/><use transform="matrix(0.05,0,0,0.05,38,0)" xlink:href="#aq"/><use transform="matrix(0.05,0,0,0.05,48,0)" xlink:href="#aj"/></g><g id="A"><use transform="matrix(0.05,0,0,0.05,0,0)" xlink:href="#ac"/><use transform="matrix(0.05,0,0,0.05,5,0)" xlink:href="#ad"/><use transform="matrix(0.05,0,0,0.05,8.95,0)" xlink:href="#ae"/><use transform="matrix(0.05,0,0,0.05,12.899999999999999,0)" xlink:href="#af"/><use transform="matrix(0.05,0,0,0.05,22.9,0)" xlink:href="#av"/></g><g id="B"><use transform="matrix(0.05,0,0,0.05,0,0)" xlink:href="#au"/><use transform="matrix(0.05,0,0,0.05,9,0)" xlink:href="#ah"/><use transform="matrix(0.05,0,0,0.05,19,0)" xlink:href="#an"/><use transform="matrix(0.05,0,0,0.05,33.95,0)" xlink:href="#ap"/></g><g id="C"><use transform="matrix(0.05,0,0,0.05,0,0)" xlink:href="#ah"/><use transform="matrix(0.05,0,0,0.05,10,0)" xlink:href="#au"/></g><path d="M108 0H70L1-190h34L89-25l56-165h34" id="aA"/><g id="D"><use transform="matrix(0.05,0,0,0.05,0,0)" xlink:href="#af"/><use transform="matrix(0.05,0,0,0.05,10,0)" xlink:href="#ai"/><use transform="matrix(0.05,0,0,0.05,15.949999999999998,0)" xlink:href="#ap"/><use transform="matrix(0.05,0,0,0.05,25.950000000000003,0)" xlink:href="#aA"/><use transform="matrix(0.05,0,0,0.05,34.95,0)" xlink:href="#ae"/><use transform="matrix(0.05,0,0,0.05,38.900000000000006,0)" xlink:href="#ar"/><use transform="matrix(0.05,0,0,0.05,48.900000000000006,0)" xlink:href="#ay"/><use transform="matrix(0.05,0,0,0.05,58.900000000000006,0)" xlink:href="#au"/></g><g id="E"><use transform="matrix(0.05,0,0,0.05,0,0)" xlink:href="#al"/><use transform="matrix(0.05,0,0,0.05,9,0)" xlink:href="#ah"/><use transform="matrix(0.05,0,0,0.05,19,0)" xlink:href="#ai"/><use transform="matrix(0.05,0,0,0.05,24.95,0)" xlink:href="#aj"/><use transform="matrix(0.05,0,0,0.05,34.95,0)" xlink:href="#av"/></g><g id="F"><use transform="matrix(0.05,0,0,0.05,0,0)" xlink:href="#al"/><use transform="matrix(0.05,0,0,0.05,9,0)" xlink:href="#ah"/><use transform="matrix(0.05,0,0,0.05,19,0)" xlink:href="#ai"/><use transform="matrix(0.05,0,0,0.05,24.95,0)" xlink:href="#aj"/><use transform="matrix(0.05,0,0,0.05,34.95,0)" xlink:href="#au"/></g><path d="M106-169C34-169 62-67 57 0H25v-261h32l-1 103c12-21 28-36 61-36 89 0 53 116 60 194h-32v-121c2-32-8-49-39-48" id="aB"/><g id="G"><use transform="matrix(0.05,0,0,0.05,0,0)" xlink:href="#an"/><use transform="matrix(0.05,0,0,0.05,14.950000000000001,0)" xlink:href="#ah"/><use transform="matrix(0.05,0,0,0.05,24.950000000000003,0)" xlink:href="#as"/><use transform="matrix(0.05,0,0,0.05,29.950000000000003,0)" xlink:href="#al"/><use transform="matrix(0.05,0,0,0.05,38.95,0)" xlink:href="#aB"/><use transform="matrix(0.05,0,0,0.05,48.95,0)" xlink:href="#ae"/><use transform="matrix(0.05,0,0,0.05,52.900000000000006,0)" xlink:href="#aq"/><use transform="matrix(0.05,0,0,0.05,62.900000000000006,0)" xlink:href="#az"/></g><g id="H"><use transform="matrix(0.05,0,0,0.05,0,0)" xlink:href="#aj"/><use transform="matrix(0.05,0,0,0.05,10,0)" xlink:href="#ap"/><use transform="matrix(0.05,0,0,0.05,20,0)" xlink:href="#au"/><use transform="matrix(0.05,0,0,0.05,29,0)" xlink:href="#ao"/></g><g id="I"><use transform="matrix(0.05,0,0,0.05,0,0)" xlink:href="#aB"/><use transform="matrix(0.05,0,0,0.05,10,0)" xlink:href="#ah"/><use transform="matrix(0.05,0,0,0.05,20,0)" xlink:href="#au"/></g><path d="M134-131c28 9 52 24 51 62-1 50-34 73-85 73S17-19 16-69c0-36 21-54 49-61-75-25-45-126 34-121 46 3 78 18 79 63 0 33-17 51-44 57zm-34-11c31 1 46-15 46-44 0-28-17-43-47-42-29 0-46 13-45 42 1 28 16 44 46 44zm1 122c35 0 51-18 51-52 0-30-18-46-53-46-33 0-51 17-51 47 0 34 19 51 53 51" id="aC"/><use transform="matrix(0.05,0,0,0.05,0,0)" xlink:href="#aC" id="J"/><g id="K"><use transform="matrix(0.05,0,0,0.05,0,0)" xlink:href="#an"/><use transform="matrix(0.05,0,0,0.05,14.950000000000001,0)" xlink:href="#ah"/><use transform="matrix(0.05,0,0,0.05,24.950000000000003,0)" xlink:href="#as"/><use transform="matrix(0.05,0,0,0.05,29.950000000000003,0)" xlink:href="#al"/><use transform="matrix(0.05,0,0,0.05,38.95,0)" xlink:href="#aB"/><use transform="matrix(0.05,0,0,0.05,48.95,0)" xlink:href="#ae"/><use transform="matrix(0.05,0,0,0.05,52.900000000000006,0)" xlink:href="#aq"/><use transform="matrix(0.05,0,0,0.05,62.900000000000006,0)" xlink:href="#az"/></g><g id="L"><use transform="matrix(0.05,0,0,0.05,0,0)" xlink:href="#af"/><use transform="matrix(0.05,0,0,0.05,10,0)" xlink:href="#ah"/><use transform="matrix(0.05,0,0,0.05,20,0)" xlink:href="#ae"/><use transform="matrix(0.05,0,0,0.05,23.95,0)" xlink:href="#ai"/><use transform="matrix(0.05,0,0,0.05,29.899999999999995,0)" xlink:href="#au"/></g><g id="M"><use transform="matrix(0.05,0,0,0.05,0,0)" xlink:href="#ap"/><use transform="matrix(0.05,0,0,0.05,10,0)" xlink:href="#aq"/><use transform="matrix(0.05,0,0,0.05,20,0)" xlink:href="#aj"/></g><path d="M206 0h-36l-40-164L89 0H53L-1-190h32L70-26l43-164h34l41 164 42-164h31" id="aD"/><g id="N"><use transform="matrix(0.05,0,0,0.05,0,0)" xlink:href="#aD"/><use transform="matrix(0.05,0,0,0.05,12.950000000000001,0)" xlink:href="#ae"/><use transform="matrix(0.05,0,0,0.05,16.900000000000002,0)" xlink:href="#aq"/><use transform="matrix(0.05,0,0,0.05,26.900000000000002,0)" xlink:href="#aq"/><use transform="matrix(0.05,0,0,0.05,36.900000000000006,0)" xlink:href="#ae"/><use transform="matrix(0.05,0,0,0.05,40.85000000000001,0)" xlink:href="#aq"/><use transform="matrix(0.05,0,0,0.05,50.85000000000001,0)" xlink:href="#az"/></g><g id="O"><use transform="matrix(0.05,0,0,0.05,0,0)" xlink:href="#az"/><use transform="matrix(0.05,0,0,0.05,10,0)" xlink:href="#ah"/><use transform="matrix(0.05,0,0,0.05,20,0)" xlink:href="#an"/><use transform="matrix(0.05,0,0,0.05,34.95,0)" xlink:href="#ap"/></g><g id="P"><use transform="matrix(0.05,0,0,0.05,0,0)" xlink:href="#ai"/><use transform="matrix(0.05,0,0,0.05,5.95,0)" xlink:href="#ap"/><use transform="matrix(0.05,0,0,0.05,15.949999999999998,0)" xlink:href="#as"/><use transform="matrix(0.05,0,0,0.05,20.95,0)" xlink:href="#ay"/><use transform="matrix(0.05,0,0,0.05,30.950000000000003,0)" xlink:href="#ai"/><use transform="matrix(0.05,0,0,0.05,36.9,0)" xlink:href="#aq"/></g><path d="M190 0L58-211 59 0H30v-248h39L202-35l-2-213h31V0h-41" id="aE"/><g id="Q"><use transform="matrix(0.05,0,0,0.05,0,0)" xlink:href="#aE"/><use transform="matrix(0.05,0,0,0.05,12.950000000000001,0)" xlink:href="#ar"/></g><path d="M141 0L90-78 38 0H4l68-98-65-92h35l48 74 47-74h35l-64 92 68 98h-35" id="aF"/><g id="R"><use transform="matrix(0.05,0,0,0.05,0,0)" xlink:href="#an"/><use transform="matrix(0.05,0,0,0.05,14.950000000000001,0)" xlink:href="#ah"/><use transform="matrix(0.05,0,0,0.05,24.950000000000003,0)" xlink:href="#aF"/></g><g id="S"><use transform="matrix(0.05,0,0,0.05,0,0)" xlink:href="#ac"/><use transform="matrix(0.05,0,0,0.05,5,0)" xlink:href="#ad"/><use transform="matrix(0.05,0,0,0.05,8.95,0)" xlink:href="#ae"/><use transform="matrix(0.05,0,0,0.05,12.899999999999999,0)" xlink:href="#af"/><use transform="matrix(0.05,0,0,0.05,22.9,0)" xlink:href="#au"/><use transform="matrix(0.05,0,0,0.05,31.899999999999995,0)" xlink:href="#av"/></g><g id="T"><use transform="matrix(0.05,0,0,0.05,0,0)" xlink:href="#ad"/><use transform="matrix(0.05,0,0,0.05,3.95,0)" xlink:href="#ar"/><use transform="matrix(0.05,0,0,0.05,13.949999999999998,0)" xlink:href="#ar"/><use transform="matrix(0.05,0,0,0.05,23.95,0)" xlink:href="#au"/><use transform="matrix(0.05,0,0,0.05,32.95,0)" xlink:href="#ae"/><use transform="matrix(0.05,0,0,0.05,36.900000000000006,0)" xlink:href="#aq"/><use transform="matrix(0.05,0,0,0.05,46.900000000000006,0)" xlink:href="#az"/></g><g id="U"><use transform="matrix(0.05,0,0,0.05,0,0)" xlink:href="#az"/><use transform="matrix(0.05,0,0,0.05,10,0)" xlink:href="#ah"/><use transform="matrix(0.05,0,0,0.05,20,0)" xlink:href="#an"/><use transform="matrix(0.05,0,0,0.05,34.95,0)" xlink:href="#ap"/></g><g id="V"><use transform="matrix(0.05,0,0,0.05,0,0)" xlink:href="#aq"/><use transform="matrix(0.05,0,0,0.05,10,0)" xlink:href="#ar"/><use transform="matrix(0.05,0,0,0.05,20,0)" xlink:href="#aq"/></g><g id="W"><use transform="matrix(0.05,0,0,0.05,0,0)" xlink:href="#af"/><use transform="matrix(0.05,0,0,0.05,10,0)" xlink:href="#ah"/><use transform="matrix(0.05,0,0,0.05,20,0)" xlink:href="#ae"/><use transform="matrix(0.05,0,0,0.05,23.95,0)" xlink:href="#ai"/></g><g id="X"><use transform="matrix(0.05,0,0,0.05,0,0)" xlink:href="#aB"/><use transform="matrix(0.05,0,0,0.05,10,0)" xlink:href="#ae"/><use transform="matrix(0.05,0,0,0.05,13.949999999999998,0)" xlink:href="#aj"/><use transform="matrix(0.05,0,0,0.05,23.95,0)" xlink:href="#ap"/></g><g id="Y"><use transform="matrix(0.05,0,0,0.05,0,0)" xlink:href="#au"/><use transform="matrix(0.05,0,0,0.05,9,0)" xlink:href="#as"/><use transform="matrix(0.05,0,0,0.05,14,0)" xlink:href="#ar"/><use transform="matrix(0.05,0,0,0.05,24,0)" xlink:href="#ai"/><use transform="matrix(0.05,0,0,0.05,29.950000000000003,0)" xlink:href="#ap"/></g><g id="Z"><use transform="matrix(0.05,0,0,0.05,0,0)" xlink:href="#ae"/><use transform="matrix(0.05,0,0,0.05,3.95,0)" xlink:href="#aq"/></g><g id="aa"><use transform="matrix(0.05,0,0,0.05,0,0)" xlink:href="#ad"/><use transform="matrix(0.05,0,0,0.05,3.95,0)" xlink:href="#ar"/><use transform="matrix(0.05,0,0,0.05,13.949999999999998,0)" xlink:href="#al"/><use transform="matrix(0.05,0,0,0.05,22.95,0)" xlink:href="#ah"/><use transform="matrix(0.05,0,0,0.05,32.95,0)" xlink:href="#ad"/></g><g id="ab"><use transform="matrix(0.05,0,0,0.05,0,0)" xlink:href="#au"/><use transform="matrix(0.05,0,0,0.05,9,0)" xlink:href="#as"/><use transform="matrix(0.05,0,0,0.05,14,0)" xlink:href="#ar"/><use transform="matrix(0.05,0,0,0.05,24,0)" xlink:href="#ai"/><use transform="matrix(0.05,0,0,0.05,29.950000000000003,0)" xlink:href="#ah"/><use transform="matrix(0.05,0,0,0.05,39.95,0)" xlink:href="#az"/><use transform="matrix(0.05,0,0,0.05,49.95,0)" xlink:href="#ap"/></g></defs></g></svg>