<svg xmlns="http://www.w3.org/2000/svg" xmlns:xlink="http://www.w3.org/1999/xlink" xmlns:lucid="lucid" width="1323.2" height="1870.4"><g transform="translate(0 0)" lucid:page-tab-id="0_0"><path d="M0 0h1323.2v1870.4H0z" fill="#fff"/><path d="M972.63 396.26c22.07 0 39.96 13.78 39.96 30.78s-17.9 30.77-39.97 30.77H852.75c-22.07 0-39.96-13.77-39.96-30.76 0-17 17.88-30.78 39.95-30.78z" stroke="#000" stroke-width="2" fill="#fff"/><use xlink:href="#a" transform="matrix(1,0,0,1,817.7853224754457,401.26359962698166) translate(76.025 29.6)"/><path d="M913.2 745.04l99.9 61.54-99.9 61.55-99.92-61.55z" stroke="#000" stroke-width="2" fill="#fff"/><use xlink:href="#b" transform="matrix(1,0,0,1,818.2848262624451,750.0357475909233) translate(43.574999999999996 60.6)"/><use xlink:href="#c" transform="matrix(1,0,0,1,818.2848262624451,750.0357475909233) translate(81.525 60.6)"/><path d="M812.8 498.84h199.8v82.07H812.8z" stroke="#000" stroke-width="2" fill="#fff"/><use xlink:href="#d" transform="matrix(1,0,0,1,817.7853224754457,503.84364314578795) translate(37.62499999999999 40.1)"/><use xlink:href="#e" transform="matrix(1,0,0,1,817.7853224754457,503.84364314578795) translate(107.42500000000001 40.1)"/><path d="M912.7 458.8v20.8" stroke="#000" stroke-width="2" fill="none"/><path d="M913.7 458.8h-2v-1h2zM912.7 494.6l-4.65-14.26h9.27z"/><path d="M912.7 497.84l-6.03-18.5h12.03zm-3.27-16.5l3.26 10.03 3.24-10.03zM707.04 805.58h104.34v2H705.04V676.4h2zm0-150.77h-2V525.66h-86.1v-2h88.1zM814.38 805.9l-1.1.68 1.1.68v.32h-3v-2h3zM618.2 529.28l-14.26-4.63L618.2 520z"/><path d="M619.2 530.66l-18.5-6 18.5-6.03zm-12.03-6l10.03 3.24v-6.5z"/><use xlink:href="#f" transform="matrix(1,0,0,1,691.3653222215369,654.8143922909543) translate(0 14.4)"/><path d="M300 499h299.7v51.3H300z" stroke="#000" stroke-width="2" fill="#fff"/><use xlink:href="#g" transform="matrix(1,0,0,1,305,504) translate(99.05 24.6)"/><use xlink:href="#h" transform="matrix(1,0,0,1,305,504) translate(142 24.6)"/><path d="M912.7 581.9v29.78h.5v11.54" stroke="#000" stroke-width="2" fill="none"/><path d="M913.7 581.9h-2v-1h2zM913.2 638.22l-4.65-14.27h9.27z"/><path d="M913.2 641.45l-6.03-18.5h12.03zm-3.27-16.5l3.26 10.03 3.24-10.03z"/><path d="M474.3 200h374.6v86.85H474.3z" stroke="#000" stroke-opacity="0" stroke-width="2" fill="#fff" fill-opacity="0"/><use xlink:href="#i" transform="matrix(1,0,0,1,479.2860798752904,205) translate(2.2716049382715937 26.05555555555555)"/><use xlink:href="#j" transform="matrix(1,0,0,1,479.2860798752904,205) translate(95.34567901234568 26.05555555555555)"/><use xlink:href="#k" transform="matrix(1,0,0,1,479.2860798752904,205) translate(207.4320987654321 26.05555555555555)"/><use xlink:href="#l" transform="matrix(1,0,0,1,479.2860798752904,205) translate(243.64197530864197 26.05555555555555)"/><use xlink:href="#m" transform="matrix(1,0,0,1,479.2860798752904,205) translate(139.29012345679013 63.38888888888889)"/><path d="M913.2 869.3v39.86h-.5v21.63" stroke="#000" stroke-width="2" fill="none"/><path d="M914.2 869.3h-2v-1.78l1 .6 1-.6zM912.7 945.8l-4.65-14.28h9.27z"/><path d="M912.7 949.02l-6.03-18.5h12.03zm-3.27-16.5l3.26 10.03 3.24-10.03z"/><use xlink:href="#n" transform="matrix(1,0,0,1,881.7360798752907,906.1067107681198) translate(0 14.4)"/><path d="M912.7 950.2l99.9 61.54-99.9 61.55-99.9-61.56z" stroke="#000" stroke-width="2" fill="#fff"/><use xlink:href="#o" transform="matrix(1,0,0,1,817.7853224754457,955.195834628536) translate(45.6 60.6)"/><use xlink:href="#p" transform="matrix(1,0,0,1,817.7853224754457,955.195834628536) translate(89.5 60.6)"/><path d="M810.88 1012.74h-12.66v-2h12.66zM813.88 1011.07l-1.1.67 1.1.68v.32h-3v-2h3zM768.87 1014.8l-9.42-3.06 9.42-3.06z"/><path d="M768.87 1009.73l-6.18 2 6.17 2.02v2.1l-12.65-4.1 12.65-4.12z"/><use xlink:href="#f" transform="matrix(1,0,0,1,768.8735974743672,1000.9438607398198) translate(0 14.4)"/><path d="M625.66 950.2h129.56v123.1H625.66z" stroke="#000" stroke-width="2" fill="#fff"/><use xlink:href="#q" transform="matrix(1,0,0,1,630.6555532926602,955.195834628536) translate(8.625 60.6)"/><use xlink:href="#r" transform="matrix(1,0,0,1,630.6555532926602,955.195834628536) translate(72.47500000000001 60.6)"/><path d="M913.7 1133.84h18.26v2H911.7v-61.37h2zm102.62 0v2h-61.4v-2zM913.7 1074.47h-2v-1.8l1 .62 1-.62zM1031.32 1134.84l-14.26 4.64v-9.28z"/><path d="M1034.56 1134.84l-18.5 6v-12zm-16.5 3.26l10.03-3.26-10.04-3.26z"/><use xlink:href="#n" transform="matrix(1,0,0,1,931.9615141513946,1124.0399129623872) translate(0 14.4)"/><path d="M690.44 1074.3v70.63h.15v52.4" stroke="#000" stroke-width="2" fill="none"/><path d="M691.44 1074.3h-2v-1h2zM690.6 1212.33l-4.64-14.26h9.27z"/><path d="M690.6 1215.57l-6.02-18.5h12.02zm-3.27-16.5l3.26 10.03 3.25-10.03z"/><path d="M690.6 1216.9l69.4 61.55-69.4 61.55-69.42-61.55z" stroke="#000" stroke-width="2" fill="#fff"/><use xlink:href="#s" transform="matrix(1,0,0,1,626.1827432066004,1221.9039477774322) translate(11.599999999999994 60.6)"/><use xlink:href="#p" transform="matrix(1,0,0,1,626.1827432066004,1221.9039477774322) translate(62.5 60.6)"/><path d="M957.4 1279.45H761.5v-2h195.9zm104.14 0h-74.8v-2h72.8V1174.6h2z"/><path d="M761.5 1279.45h-2.63l1.13-1-1.13-1h2.64zM1065.17 1173.86h-9.27l4.64-14.26z"/><path d="M1066.55 1174.86h-12.02l6-18.5zm-9.27-2h6.52l-3.26-10.03z"/><use xlink:href="#f" transform="matrix(1,0,0,1,957.394471822301,1267.6519738887162) translate(0 14.4)"/><path d="M619.68 1278.45h-40v-266.7h26.74" stroke="#000" stroke-width="2" fill="none"/><path d="M621.18 1278.45l1.13 1h-2.62v-2h2.63zM621.42 1011.74l-14.27 4.64v-9.27z"/><path d="M624.66 1011.74l-18.5 6.02v-12.03zm-16.5 3.26l10.02-3.26-10.03-3.26z"/><use xlink:href="#n" transform="matrix(1,0,0,1,587.6755133320969,1131.8078973339864) translate(0 14.4)"/><path d="M1085.5 1134.84c0 11.33-11.17 20.52-24.96 20.52-13.8 0-24.98-9.2-24.98-20.52 0-11.33 11.2-20.52 24.98-20.52 13.8 0 24.97 9.2 24.97 20.52z" stroke="#000" stroke-width="2" fill="#999"/><path d="M1061.54 1113.32h-2V663.97H957.4v-2h104.14zM1061.54 1114.42l-1-.1-1 .1v-1.1h2zM956.67 667.6l-14.27-4.63 14.27-4.63z"/><path d="M957.67 668.98l-18.5-6 18.5-6.02zm-12.03-6l10.03 3.25v-6.52z"/><path d="M938.16 662.97c0 11.33-11.18 20.52-24.97 20.52-13.8 0-25-9.2-25-20.53 0-11.33 11.2-20.5 25-20.5 13.78 0 24.96 9.17 24.96 20.5z" stroke="#000" stroke-width="2" fill="#999"/><path d="M913.2 684.5v41.13" stroke="#000" stroke-width="2" fill="none"/><path d="M913.2 683.5l1-.1v1.1h-2v-1.1zM913.2 740.63l-4.65-14.27h9.27z"/><path d="M913.2 743.86l-6.03-18.5h12.03zm-3.27-16.5l3.26 10.03 3.24-10.04z"/><path d="M300 621.45h299.7V683H300z" stroke="#000" stroke-width="2" fill="#fff"/><use xlink:href="#t" transform="matrix(1,0,0,1,305,626.4519738887162) translate(100.55 29.6)"/><use xlink:href="#h" transform="matrix(1,0,0,1,305,626.4519738887162) translate(140.5 29.6)"/><path d="M190 733.84L240 780l-50 46.16L140 780z" stroke="#000" stroke-width="2" fill="#fff"/><use xlink:href="#u" transform="matrix(1,0,0,1,145,738.8389804165372) translate(19.549999999999997 45.1)"/><path d="M191 1000.76h-2v-66.7h2zm0-88.3h-2v-84.94h2zM191 827.52h-2v-2.28l1 .92 1-.92zM190 1015.76l-4.64-14.27h9.28z"/><path d="M190 1019l-6-18.5h12zm-3.26-16.5l3.26 10.02 3.26-10.03z"/><use xlink:href="#f" transform="matrix(1,0,0,1,175.325,912.4592422327452) translate(0 14.4)"/><path d="M450 720l80 60-80 60-80-60z" stroke="#000" stroke-width="2" fill="#fff"/><use xlink:href="#v" transform="matrix(1,0,0,1,375,725) translate(24.025 58.6)"/><use xlink:href="#w" transform="matrix(1,0,0,1,375,725) translate(61.025 58.6)"/><use xlink:href="#e" transform="matrix(1,0,0,1,375,725) translate(81.025 58.6)"/><path d="M448.4 930.76h-2v-24.84h2zm2.6-46.43h-2v-43.08h2zM451 841.25h-2v-2l1 .75 1-.75zM447.4 945.76l-4.64-14.26h9.27z"/><path d="M447.4 949l-6.02-18.5h12.02zm-3.27-16.5l3.26 10.03 3.25-10.03z"/><use xlink:href="#f" transform="matrix(1,0,0,1,434.0203466258966,884.325) translate(0 14.4)"/><path d="M380 950h134.78v123H380z" stroke="#000" stroke-width="2" fill="#fff"/><use xlink:href="#q" transform="matrix(1,0,0,1,385,955) translate(8.624999999999993 60.1)"/><use xlink:href="#x" transform="matrix(1,0,0,1,385,955) translate(72.475 60.1)"/><path d="M449.85 551.3v50.92" stroke="#000" stroke-width="2" fill="none"/><path d="M450.85 551.3h-2v-1h2zM449.85 617.22l-4.63-14.27h9.27z"/><path d="M449.85 620.45l-6-18.5h12zm-3.26-16.5l3.25 10.03 3.26-10.03z"/><path d="M449.85 684v16.66" stroke="#000" stroke-width="2" fill="none"/><path d="M450.85 684h-2v-1h2zM449.97 715.5l-4.75-14.2 9.27-.1z"/><path d="M450 718.75l-6.16-18.45 12.02-.1zm-3.4-16.47l3.35 10 3.17-10.06zM192.9 653.23H191v79.25h-2v-81.25h3.9zm87.86 0h-64.9v-2h64.9zM191 734.76l-1-.92-1 .92v-2.28h2zM295.76 652.23l-14.26 4.63v-9.27z"/><path d="M299 652.23l-18.5 6v-12.02zm-16.5 3.25l10.03-3.25-10.03-3.26z"/><use xlink:href="#n" transform="matrix(1,0,0,1,192.89900576391048,641.4259869443582) translate(0 14.4)"/><path d="M293.43 781H259.7v-2h33.73zm74.9 0h-51.95v-2h51.95z"/><path d="M370 780l1.33 1h-3v-2h3zM258.98 784.64L244.7 780l14.28-4.64z"/><path d="M259.98 786l-18.5-6 18.5-6zm-12.03-6l10.03 3.26v-6.52z"/><use xlink:href="#n" transform="matrix(1,0,0,1,293.42876277441076,769.2) translate(0 14.4)"/><path d="M450 1217l80 60-80 60-80-60z" stroke="#000" stroke-width="2" fill="#fff"/><use xlink:href="#y" transform="matrix(1,0,0,1,375,1222) translate(33.55 58.6)"/><use xlink:href="#e" transform="matrix(1,0,0,1,375,1222) translate(71.5 58.6)"/><path d="M447.4 1074v125.47" stroke="#000" stroke-width="2" fill="none"/><path d="M448.4 1074h-2v-1h2zM447.4 1214.47l-4.64-14.26h9.27z"/><path d="M447.4 1217.7l-6.02-18.5h12.02zm-3.27-16.5l3.26 10.03 3.25-10.02z"/><path d="M214.98 1040.52c0 11.33-11.2 20.5-24.98 20.5-13.8 0-24.98-9.17-24.98-20.5S176.22 1020 190 1020c13.8 0 24.98 9.2 24.98 20.52z" stroke="#000" stroke-width="2" fill="#999"/><path d="M280.76 525.65H125.02v513.87h39v2h-41V523.65h157.74z"/><path d="M165.02 1040.52l.1 1H164v-2h1.1zM295.76 524.65l-14.26 4.63V520z"/><path d="M299 524.65l-18.5 6v-12.02zm-16.5 3.25l10.03-3.25-10.03-3.26zM191 1276h73.66v2H189v-197.73h2zm177.33 0v2H294v-2z"/><path d="M370 1277l1.33 1h-3v-2h3zM194.64 1079.54h-9.28l4.64-14.27z"/><path d="M196 1080.54h-12l6-18.5zm-9.26-2h6.52L190 1068.5z"/><g><use xlink:href="#f" transform="matrix(1,0,0,1,264.6583333333333,1266.2) translate(0 14.4)"/></g><path d="M1127.52 1411H449v-32.87h2V1409h674.52v-273.16h-20.77v-2h22.77zM451 1356.53h-2v-18.28h2z"/><path d="M451 1338.25h-2v-2l1 .75 1-.75zM1104.02 1139.48l-14.27-4.64 14.27-4.64z"/><path d="M1105.02 1140.85l-18.5-6 18.5-6.02zm-12.03-6l10.02 3.25v-6.52z"/><g><use xlink:href="#n" transform="matrix(1,0,0,1,438.525,1356.5333333333333) translate(0 14.4)"/></g><defs><path d="M185-189c-5-48-123-54-124 2 14 75 158 14 163 119 3 78-121 87-175 55-17-10-28-26-33-46l33-7c5 56 141 63 141-1 0-78-155-14-162-118-5-82 145-84 179-34 5 7 8 16 11 25" id="z"/><path d="M59-47c-2 24 18 29 38 22v24C64 9 27 4 27-40v-127H5v-23h24l9-43h21v43h35v23H59v120" id="A"/><path d="M141-36C126-15 110 5 73 4 37 3 15-17 15-53c-1-64 63-63 125-63 3-35-9-54-41-54-24 1-41 7-42 31l-33-3c5-37 33-52 76-52 45 0 72 20 72 64v82c-1 20 7 32 28 27v20c-31 9-61-2-59-35zM48-53c0 20 12 33 32 33 41-3 63-29 60-74-43 2-92-5-92 41" id="B"/><path d="M114-163C36-179 61-72 57 0H25l-1-190h30c1 12-1 29 2 39 6-27 23-49 58-41v29" id="C"/><g id="a"><use transform="matrix(0.05,0,0,0.05,0,0)" xlink:href="#z"/><use transform="matrix(0.05,0,0,0.05,12,0)" xlink:href="#A"/><use transform="matrix(0.05,0,0,0.05,17,0)" xlink:href="#B"/><use transform="matrix(0.05,0,0,0.05,27,0)" xlink:href="#C"/><use transform="matrix(0.05,0,0,0.05,32.95,0)" xlink:href="#A"/></g><path d="M115-194c55 1 70 41 70 98S169 2 115 4C84 4 66-9 55-30l1 105H24l-1-265h31l2 30c10-21 28-34 59-34zm-8 174c40 0 45-34 45-75s-6-73-45-74c-42 0-51 32-51 76 0 43 10 73 51 73" id="D"/><path d="M24 0v-261h32V0H24" id="E"/><path d="M179-190L93 31C79 59 56 82 12 73V49c39 6 53-20 64-50L1-190h34L92-34l54-156h33" id="F"/><g id="b"><use transform="matrix(0.05,0,0,0.05,0,0)" xlink:href="#D"/><use transform="matrix(0.05,0,0,0.05,10,0)" xlink:href="#E"/><use transform="matrix(0.05,0,0,0.05,13.949999999999998,0)" xlink:href="#B"/><use transform="matrix(0.05,0,0,0.05,23.95,0)" xlink:href="#F"/></g><path d="M96-169c-40 0-48 33-48 73s9 75 48 75c24 0 41-14 43-38l32 2c-6 37-31 61-74 61-59 0-76-41-82-99-10-93 101-131 147-64 4 7 5 14 7 22l-32 3c-4-21-16-35-41-35" id="G"/><path d="M24-231v-30h32v30H24zM24 0v-190h32V0H24" id="H"/><path d="M143 0L79-87 56-68V0H24v-261h32v163l83-92h37l-77 82L181 0h-38" id="I"/><path d="M100-194c63 0 86 42 84 106H49c0 40 14 67 53 68 26 1 43-12 49-29l28 8c-11 28-37 45-77 45C44 4 14-33 15-96c1-61 26-98 85-98zm52 81c6-60-76-77-97-28-3 7-6 17-6 28h103" id="J"/><path d="M85-194c31 0 48 13 60 33l-1-100h32l1 261h-30c-2-10 0-23-3-31C134-8 116 4 85 4 32 4 16-35 15-94c0-66 23-100 70-100zm9 24c-40 0-46 34-46 75 0 40 6 74 45 74 42 0 51-32 51-76 0-42-9-74-50-73" id="K"/><path d="M103-251c84 0 111 97 45 133-19 10-37 24-39 52H78c0-63 77-55 77-114 0-30-21-42-52-43-32 0-53 17-56 46l-32-2c7-45 34-72 88-72zM77 0v-35h34V0H77" id="L"/><g id="c"><use transform="matrix(0.05,0,0,0.05,0,0)" xlink:href="#G"/><use transform="matrix(0.05,0,0,0.05,9,0)" xlink:href="#E"/><use transform="matrix(0.05,0,0,0.05,12.949999999999998,0)" xlink:href="#H"/><use transform="matrix(0.05,0,0,0.05,16.9,0)" xlink:href="#G"/><use transform="matrix(0.05,0,0,0.05,25.899999999999995,0)" xlink:href="#I"/><use transform="matrix(0.05,0,0,0.05,34.9,0)" xlink:href="#J"/><use transform="matrix(0.05,0,0,0.05,44.9,0)" xlink:href="#K"/><use transform="matrix(0.05,0,0,0.05,54.900000000000006,0)" xlink:href="#L"/></g><path d="M33 0v-248h34V0H33" id="M"/><path d="M117-194c89-4 53 116 60 194h-32v-121c0-31-8-49-39-48C34-167 62-67 57 0H25l-1-190h30c1 10-1 24 2 32 11-22 29-35 61-36" id="N"/><path d="M9 0v-24l116-142H16v-24h144v24L44-24h123V0H9" id="O"/><g id="d"><use transform="matrix(0.05,0,0,0.05,0,0)" xlink:href="#M"/><use transform="matrix(0.05,0,0,0.05,5,0)" xlink:href="#N"/><use transform="matrix(0.05,0,0,0.05,15,0)" xlink:href="#H"/><use transform="matrix(0.05,0,0,0.05,18.95,0)" xlink:href="#A"/><use transform="matrix(0.05,0,0,0.05,23.95,0)" xlink:href="#H"/><use transform="matrix(0.05,0,0,0.05,27.899999999999995,0)" xlink:href="#B"/><use transform="matrix(0.05,0,0,0.05,37.9,0)" xlink:href="#E"/><use transform="matrix(0.05,0,0,0.05,41.85,0)" xlink:href="#H"/><use transform="matrix(0.05,0,0,0.05,45.800000000000004,0)" xlink:href="#O"/><use transform="matrix(0.05,0,0,0.05,54.800000000000004,0)" xlink:href="#J"/></g><path d="M177-190C167-65 218 103 67 71c-23-6-38-20-44-43l32-5c15 47 100 32 89-28v-30C133-14 115 1 83 1 29 1 15-40 15-95c0-56 16-97 71-98 29-1 48 16 59 35 1-10 0-23 2-32h30zM94-22c36 0 50-32 50-73 0-42-14-75-50-75-39 0-46 34-46 75s6 73 46 73" id="P"/><path d="M210-169c-67 3-38 105-44 169h-31v-121c0-29-5-50-35-48C34-165 62-65 56 0H25l-1-190h30c1 10-1 24 2 32 10-44 99-50 107 0 11-21 27-35 58-36 85-2 47 119 55 194h-31v-121c0-29-5-49-35-48" id="Q"/><g id="e"><use transform="matrix(0.05,0,0,0.05,0,0)" xlink:href="#P"/><use transform="matrix(0.05,0,0,0.05,10,0)" xlink:href="#B"/><use transform="matrix(0.05,0,0,0.05,20,0)" xlink:href="#Q"/><use transform="matrix(0.05,0,0,0.05,34.95,0)" xlink:href="#J"/></g><path d="M137-103V0h-34v-103L8-248h37l75 118 75-118h37" id="R"/><path d="M135-143c-3-34-86-38-87 0 15 53 115 12 119 90S17 21 10-45l28-5c4 36 97 45 98 0-10-56-113-15-118-90-4-57 82-63 122-42 12 7 21 19 24 35" id="S"/><g id="f"><use transform="matrix(0.05,0,0,0.05,0,0)" xlink:href="#R"/><use transform="matrix(0.05,0,0,0.05,10.35,0)" xlink:href="#J"/><use transform="matrix(0.05,0,0,0.05,20.35,0)" xlink:href="#S"/></g><g id="g"><use transform="matrix(0.05,0,0,0.05,0,0)" xlink:href="#z"/><use transform="matrix(0.05,0,0,0.05,12,0)" xlink:href="#A"/><use transform="matrix(0.05,0,0,0.05,17,0)" xlink:href="#B"/><use transform="matrix(0.05,0,0,0.05,27,0)" xlink:href="#C"/><use transform="matrix(0.05,0,0,0.05,32.95,0)" xlink:href="#A"/></g><path d="M143 4C61 4 22-44 18-125c-5-107 100-154 193-111 17 8 29 25 37 43l-32 9c-13-25-37-40-76-40-61 0-88 39-88 99 0 61 29 100 91 101 35 0 62-11 79-27v-45h-74v-28h105v86C228-13 192 4 143 4" id="T"/><g id="h"><use transform="matrix(0.05,0,0,0.05,0,0)" xlink:href="#T"/><use transform="matrix(0.05,0,0,0.05,14,0)" xlink:href="#B"/><use transform="matrix(0.05,0,0,0.05,24,0)" xlink:href="#Q"/><use transform="matrix(0.05,0,0,0.05,38.95,0)" xlink:href="#J"/></g><path d="M76-208v77h127v40H76V0H24v-248h183v40H76" id="U"/><path d="M24 0v-248h195v40H76v63h132v40H76v65h150V0H24" id="V"/><path d="M175 0L67-191c6 58 2 128 3 191H24v-248h59L193-55c-6-58-2-129-3-193h46V0h-61" id="W"/><path d="M24-248c120-7 223 5 221 122C244-46 201 0 124 0H24v-248zM76-40c74 7 117-18 117-86 0-67-45-88-117-82v168" id="X"/><g id="i"><use transform="matrix(0.08641975308641976,0,0,0.08641975308641976,0,0)" xlink:href="#U"/><use transform="matrix(0.08641975308641976,0,0,0.08641975308641976,18.925925925925927,0)" xlink:href="#V"/><use transform="matrix(0.08641975308641976,0,0,0.08641975308641976,39.66666666666667,0)" xlink:href="#W"/><use transform="matrix(0.08641975308641976,0,0,0.08641975308641976,62.04938271604939,0)" xlink:href="#X"/></g><path d="M135-194c53 0 70 44 70 98 0 56-19 98-73 100-31 1-45-17-59-34 3 33 2 69 2 105H25l-1-265h48c2 10 0 23 3 31 11-24 29-35 60-35zM114-30c33 0 39-31 40-66 0-38-9-64-40-64-56 0-55 130 0 130" id="Y"/><path d="M135-150c-39-12-60 13-60 57V0H25l-1-190h47c2 13-1 29 3 40 6-28 27-53 61-41v41" id="Z"/><path d="M110-194c64 0 96 36 96 99 0 64-35 99-97 99-61 0-95-36-95-99 0-62 34-99 96-99zm-1 164c35 0 45-28 45-65 0-40-10-65-43-65-34 0-45 26-45 65 0 36 10 65 43 65" id="aa"/><path d="M25-224v-37h50v37H25zM75 22c2 45-34 59-81 51V38c22 5 31-5 31-27v-201h50V22" id="ab"/><path d="M185-48c-13 30-37 53-82 52C43 2 14-33 14-96s30-98 90-98c62 0 83 45 84 108H66c0 31 8 55 39 56 18 0 30-7 34-22zm-45-69c5-46-57-63-70-21-2 6-4 13-4 21h74" id="ac"/><path d="M190-63c-7 42-38 67-86 67-59 0-84-38-90-98-12-110 154-137 174-36l-49 2c-2-19-15-32-35-32-30 0-35 28-38 64-6 74 65 87 74 30" id="ad"/><path d="M115-3C79 11 28 4 28-45v-112H4v-33h27l15-45h31v45h36v33H77v99c-1 23 16 31 38 25v30" id="ae"/><g id="j"><use transform="matrix(0.08641975308641976,0,0,0.08641975308641976,0,0)" xlink:href="#Y"/><use transform="matrix(0.08641975308641976,0,0,0.08641975308641976,18.925925925925927,0)" xlink:href="#Z"/><use transform="matrix(0.08641975308641976,0,0,0.08641975308641976,31.024691358024693,0)" xlink:href="#aa"/><use transform="matrix(0.08641975308641976,0,0,0.08641975308641976,49.95061728395062,0)" xlink:href="#ab"/><use transform="matrix(0.08641975308641976,0,0,0.08641975308641976,58.592592592592595,0)" xlink:href="#ac"/><use transform="matrix(0.08641975308641976,0,0,0.08641975308641976,75.87654320987654,0)" xlink:href="#ad"/><use transform="matrix(0.08641975308641976,0,0,0.08641975308641976,93.16049382716048,0)" xlink:href="#ae"/></g><path d="M128-127c34 4 56 21 59 58 7 91-148 94-172 28-4-9-6-17-7-26l51-5c1 24 16 35 40 36 23 0 39-12 38-36-1-31-31-36-65-34v-40c32 2 59-3 59-33 0-20-13-33-34-33s-33 13-35 32l-50-3c6-44 37-68 86-68 50 0 83 20 83 66 0 35-22 52-53 58" id="af"/><path d="M35-132v-50h50v50H35zM35 0v-49h50V0H35" id="ag"/><g id="k"><use transform="matrix(0.08641975308641976,0,0,0.08641975308641976,0,0)" xlink:href="#af"/><use transform="matrix(0.08641975308641976,0,0,0.08641975308641976,17.283950617283953,0)" xlink:href="#ag"/></g><path d="M230 0l2-204L168 0h-37L68-204 70 0H24v-248h70l56 185 57-185h69V0h-46" id="ah"/><path d="M220-157c-53 9-28 100-34 157h-49v-107c1-27-5-49-29-50C55-147 81-57 75 0H25l-1-190h47c2 12-1 28 3 38 10-53 101-56 108 0 13-22 24-43 59-42 82 1 51 116 57 194h-49v-107c-1-25-5-48-29-50" id="ai"/><path d="M123 10C108 53 80 86 19 72V37c35 8 53-11 59-39L3-190h52l48 148c12-52 28-100 44-148h51" id="aj"/><g id="l"><use transform="matrix(0.08641975308641976,0,0,0.08641975308641976,0,0)" xlink:href="#ah"/><use transform="matrix(0.08641975308641976,0,0,0.08641975308641976,25.83950617283951,0)" xlink:href="#ac"/><use transform="matrix(0.08641975308641976,0,0,0.08641975308641976,43.12345679012346,0)" xlink:href="#ai"/><use transform="matrix(0.08641975308641976,0,0,0.08641975308641976,70.77777777777779,0)" xlink:href="#aa"/><use transform="matrix(0.08641975308641976,0,0,0.08641975308641976,89.70370370370371,0)" xlink:href="#Z"/><use transform="matrix(0.08641975308641976,0,0,0.08641975308641976,101.80246913580248,0)" xlink:href="#aj"/></g><path d="M67-125c0 54 23 88 75 88 28 0 53-7 68-21v-34h-60v-39h108v91C232-14 192 4 140 4 58 4 20-42 15-125 8-236 126-280 215-234c19 10 29 26 37 47l-47 15c-11-23-29-39-63-39-53 1-75 33-75 86" id="ak"/><path d="M133-34C117-15 103 5 69 4 32 3 11-16 11-54c-1-60 55-63 116-61 1-26-3-47-28-47-18 1-26 9-28 27l-52-2c7-38 36-58 82-57s74 22 75 68l1 82c-1 14 12 18 25 15v27c-30 8-71 5-69-32zm-48 3c29 0 43-24 42-57-32 0-66-3-65 30 0 17 8 27 23 27" id="al"/><g id="m"><use transform="matrix(0.08641975308641976,0,0,0.08641975308641976,0,0)" xlink:href="#ak"/><use transform="matrix(0.08641975308641976,0,0,0.08641975308641976,24.19753086419753,0)" xlink:href="#al"/><use transform="matrix(0.08641975308641976,0,0,0.08641975308641976,41.48148148148148,0)" xlink:href="#ai"/><use transform="matrix(0.08641975308641976,0,0,0.08641975308641976,69.1358024691358,0)" xlink:href="#ac"/></g><path d="M190 0L58-211 59 0H30v-248h39L202-35l-2-213h31V0h-41" id="am"/><path d="M100-194c62-1 85 37 85 99 1 63-27 99-86 99S16-35 15-95c0-66 28-99 85-99zM99-20c44 1 53-31 53-75 0-43-8-75-51-75s-53 32-53 75 10 74 51 75" id="an"/><g id="n"><use transform="matrix(0.05,0,0,0.05,0,0)" xlink:href="#am"/><use transform="matrix(0.05,0,0,0.05,12.950000000000001,0)" xlink:href="#an"/></g><path d="M84 4C-5 8 30-112 23-190h32v120c0 31 7 50 39 49 72-2 45-101 50-169h31l1 190h-30c-1-10 1-25-2-33-11 22-28 36-60 37" id="ao"/><g id="o"><use transform="matrix(0.05,0,0,0.05,0,0)" xlink:href="#C"/><use transform="matrix(0.05,0,0,0.05,5.95,0)" xlink:href="#ao"/><use transform="matrix(0.05,0,0,0.05,15.949999999999998,0)" xlink:href="#E"/><use transform="matrix(0.05,0,0,0.05,19.9,0)" xlink:href="#J"/><use transform="matrix(0.05,0,0,0.05,29.899999999999995,0)" xlink:href="#S"/></g><g id="p"><use transform="matrix(0.05,0,0,0.05,0,0)" xlink:href="#G"/><use transform="matrix(0.05,0,0,0.05,9,0)" xlink:href="#E"/><use transform="matrix(0.05,0,0,0.05,12.949999999999998,0)" xlink:href="#H"/><use transform="matrix(0.05,0,0,0.05,16.9,0)" xlink:href="#G"/><use transform="matrix(0.05,0,0,0.05,25.899999999999995,0)" xlink:href="#I"/><use transform="matrix(0.05,0,0,0.05,34.9,0)" xlink:href="#J"/><use transform="matrix(0.05,0,0,0.05,44.9,0)" xlink:href="#K"/></g><path d="M30-248c118-7 216 8 213 122C240-48 200 0 122 0H30v-248zM63-27c89 8 146-16 146-99s-60-101-146-95v194" id="ap"/><g id="q"><use transform="matrix(0.05,0,0,0.05,0,0)" xlink:href="#ap"/><use transform="matrix(0.05,0,0,0.05,12.950000000000001,0)" xlink:href="#H"/><use transform="matrix(0.05,0,0,0.05,16.900000000000002,0)" xlink:href="#S"/><use transform="matrix(0.05,0,0,0.05,25.900000000000002,0)" xlink:href="#D"/><use transform="matrix(0.05,0,0,0.05,35.900000000000006,0)" xlink:href="#E"/><use transform="matrix(0.05,0,0,0.05,39.85000000000001,0)" xlink:href="#B"/><use transform="matrix(0.05,0,0,0.05,49.85000000000001,0)" xlink:href="#F"/></g><g id="r"><use transform="matrix(0.05,0,0,0.05,0,0)" xlink:href="#C"/><use transform="matrix(0.05,0,0,0.05,5.95,0)" xlink:href="#ao"/><use transform="matrix(0.05,0,0,0.05,15.949999999999998,0)" xlink:href="#E"/><use transform="matrix(0.05,0,0,0.05,19.9,0)" xlink:href="#J"/><use transform="matrix(0.05,0,0,0.05,29.899999999999995,0)" xlink:href="#S"/></g><path d="M212-179c-10-28-35-45-73-45-59 0-87 40-87 99 0 60 29 101 89 101 43 0 62-24 78-52l27 14C228-24 195 4 139 4 59 4 22-46 18-125c-6-104 99-153 187-111 19 9 31 26 39 46" id="aq"/><g id="s"><use transform="matrix(0.05,0,0,0.05,0,0)" xlink:href="#aq"/><use transform="matrix(0.05,0,0,0.05,12.950000000000001,0)" xlink:href="#E"/><use transform="matrix(0.05,0,0,0.05,16.900000000000002,0)" xlink:href="#an"/><use transform="matrix(0.05,0,0,0.05,26.900000000000002,0)" xlink:href="#S"/><use transform="matrix(0.05,0,0,0.05,35.900000000000006,0)" xlink:href="#J"/></g><path d="M30-248c87 1 191-15 191 75 0 78-77 80-158 76V0H30v-248zm33 125c57 0 124 11 124-50 0-59-68-47-124-48v98" id="ar"/><g id="t"><use transform="matrix(0.05,0,0,0.05,0,0)" xlink:href="#ar"/><use transform="matrix(0.05,0,0,0.05,12,0)" xlink:href="#E"/><use transform="matrix(0.05,0,0,0.05,15.949999999999998,0)" xlink:href="#B"/><use transform="matrix(0.05,0,0,0.05,25.950000000000003,0)" xlink:href="#F"/></g><g id="u"><use transform="matrix(0.05,0,0,0.05,0,0)" xlink:href="#C"/><use transform="matrix(0.05,0,0,0.05,5.95,0)" xlink:href="#J"/><use transform="matrix(0.05,0,0,0.05,15.949999999999998,0)" xlink:href="#S"/><use transform="matrix(0.05,0,0,0.05,24.95,0)" xlink:href="#A"/><use transform="matrix(0.05,0,0,0.05,29.950000000000003,0)" xlink:href="#B"/><use transform="matrix(0.05,0,0,0.05,39.95,0)" xlink:href="#C"/><use transform="matrix(0.05,0,0,0.05,45.900000000000006,0)" xlink:href="#A"/></g><path d="M30 0v-248h187v28H63v79h144v27H63v87h162V0H30" id="as"/><g id="v"><use transform="matrix(0.05,0,0,0.05,0,0)" xlink:href="#as"/><use transform="matrix(0.05,0,0,0.05,12,0)" xlink:href="#N"/><use transform="matrix(0.05,0,0,0.05,22,0)" xlink:href="#K"/></g><path d="M101-234c-31-9-42 10-38 44h38v23H63V0H32v-167H5v-23h27c-7-52 17-82 69-68v24" id="at"/><g id="w"><use transform="matrix(0.05,0,0,0.05,0,0)" xlink:href="#an"/><use transform="matrix(0.05,0,0,0.05,10,0)" xlink:href="#at"/></g><g id="x"><use transform="matrix(0.05,0,0,0.05,0,0)" xlink:href="#C"/><use transform="matrix(0.05,0,0,0.05,5.95,0)" xlink:href="#J"/><use transform="matrix(0.05,0,0,0.05,15.949999999999998,0)" xlink:href="#S"/><use transform="matrix(0.05,0,0,0.05,24.95,0)" xlink:href="#ao"/><use transform="matrix(0.05,0,0,0.05,34.95,0)" xlink:href="#E"/><use transform="matrix(0.05,0,0,0.05,38.900000000000006,0)" xlink:href="#A"/></g><path d="M206 0h-36l-40-164L89 0H53L-1-190h32L70-26l43-164h34l41 164 42-164h31" id="au"/><g id="y"><use transform="matrix(0.05,0,0,0.05,0,0)" xlink:href="#N"/><use transform="matrix(0.05,0,0,0.05,10,0)" xlink:href="#J"/><use transform="matrix(0.05,0,0,0.05,20,0)" xlink:href="#au"/></g></defs></g></svg>