<?xml version="1.0" encoding="UTF-8"?>
<!DOCTYPE svg  PUBLIC '-//W3C//DTD SVG 1.1//EN'  'http://www.w3.org/Graphics/SVG/1.1/DTD/svg11.dtd'>
<svg enable-background="new 0 0 100 100" version="1.1" viewBox="0 0 100 100" xml:space="preserve" xmlns="http://www.w3.org/2000/svg">
	<path d="m50 5c-24.813 0-45 20.187-45 45s20.187 45 45 45 45-20.188 45-45c0-24.813-20.187-45-45-45zm0 84.204c-21.617 0-39.204-17.587-39.204-39.204s17.587-39.204 39.204-39.204 39.204 17.587 39.204 39.204-17.587 39.204-39.204 39.204z"/>
	<path d="m50 10.796c-21.617 0-39.204 17.587-39.204 39.204s17.587 39.204 39.204 39.204 39.204-17.587 39.204-39.204-17.587-39.204-39.204-39.204zm13.033 13.94c4.121 0 7.462 5.19 7.462 11.592s-3.341 11.592-7.462 11.592-7.463-5.19-7.463-11.592 3.342-11.592 7.463-11.592zm-26.066 0c4.122 0 7.463 5.19 7.463 11.592s-3.341 11.592-7.463 11.592-7.463-5.19-7.463-11.592 3.341-11.592 7.463-11.592zm34.283 36.967c-4e-3 0.043-0.016 0.083-0.021 0.127-0.017 0.197-0.051 0.391-0.105 0.578-1.729 10.113-10.515 17.821-21.124 17.821s-19.394-7.707-21.123-17.824c-0.054-0.184-0.089-0.379-0.106-0.576-6e-3 -0.044-0.017-0.084-0.023-0.127h0.011c-2e-3 -0.037-0.011-0.072-0.011-0.11 0-1.563 1.232-2.832 2.751-2.832h37.002c1.521 0 2.751 1.267 2.75 2.834 0 0.038-0.01 0.073-0.011 0.11h0.01z" fill="#FFF200"/>
	<ellipse cx="36.967" cy="36.328" rx="7.463" ry="11.592"/>
	<ellipse cx="63.033" cy="36.328" rx="7.462" ry="11.592"/>
	<path d="m68.501 58.759h-37.002c-1.519 0-2.751 1.269-2.751 2.832 0 0.038 9e-3 0.073 0.011 0.11h-0.011c6e-3 0.043 0.017 0.083 0.023 0.127 0.017 0.197 0.052 0.393 0.106 0.576 1.729 10.117 10.514 17.825 21.123 17.825s19.395-7.707 21.123-17.82c0.055-0.188 0.089-0.381 0.105-0.578 6e-3 -0.044 0.018-0.084 0.021-0.127h-0.01c1e-3 -0.037 0.011-0.072 0.011-0.11 2e-3 -1.569-1.229-2.835-2.749-2.835z"/>
</svg>
