<?xml version="1.0" encoding="UTF-8"?>
<!DOCTYPE svg  PUBLIC '-//W3C//DTD SVG 1.1//EN'  'http://www.w3.org/Graphics/SVG/1.1/DTD/svg11.dtd'>
<svg enable-background="new 0 0 100 100" version="1.1" viewBox="0 0 100 100" xml:space="preserve" xmlns="http://www.w3.org/2000/svg">
	<path d="m49.999 5c-24.813 0-45 20.187-45 45s20.187 45 45 45 45.002-20.188 45.002-45c0-24.813-20.188-45-45.002-45zm0 84.204c-21.617 0-39.204-17.587-39.204-39.204s17.587-39.204 39.204-39.204c21.618 0 39.206 17.587 39.206 39.204s-17.588 39.204-39.206 39.204z"/>
	<path d="m49.999 10.796c-21.617 0-39.204 17.587-39.204 39.204s17.587 39.204 39.204 39.204c21.618 0 39.206-17.587 39.206-39.204s-17.588-39.204-39.206-39.204zm13.033 13.94c4.121 0 7.462 5.19 7.462 11.592s-3.341 11.592-7.462 11.592c-4.122 0-7.462-5.19-7.462-11.592s3.34-11.592 7.462-11.592zm-26.065 0c4.122 0 7.462 5.19 7.462 11.592s-3.341 11.592-7.462 11.592-7.462-5.19-7.462-11.592 3.341-11.592 7.462-11.592zm-4.22 25.264s3.243 4.625 3.243 6.417c0 1.79-1.451 3.243-3.243 3.243-1.79 0-3.243-1.453-3.243-3.243 0-1.792 3.243-6.417 3.243-6.417zm39.133 25.419c-1.364 0.84-3.147 0.411-3.985-0.954-3.697-6.027-10.504-9.771-17.763-9.771-7.448 0-14.342 3.891-17.992 10.154-0.539 0.922-1.509 1.438-2.507 1.439-0.496 0-0.998-0.128-1.457-0.396-1.382-0.806-1.85-2.58-1.044-3.963 4.684-8.037 13.497-13.031 22.999-13.031 9.26 0 17.96 4.804 22.703 12.537 0.838 1.364 0.41 3.148-0.954 3.985z" fill="#FFF200"/>
	<ellipse cx="36.967" cy="36.328" rx="7.462" ry="11.592"/>
	<ellipse cx="63.032" cy="36.328" rx="7.462" ry="11.592"/>
	<path d="m50.131 58.896c-9.502 0-18.315 4.994-22.999 13.031-0.806 1.383-0.338 3.157 1.044 3.963 0.459 0.269 0.961 0.396 1.457 0.396 0.998-1e-3 1.968-0.518 2.507-1.439 3.65-6.264 10.544-10.154 17.992-10.154 7.259 0 14.065 3.744 17.763 9.771 0.838 1.365 2.621 1.794 3.985 0.954 1.364-0.837 1.792-2.621 0.954-3.985-4.743-7.733-13.443-12.537-22.703-12.537z"/>
	<path d="m32.747 59.66c1.792 0 3.243-1.453 3.243-3.243 0-1.792-3.243-6.417-3.243-6.417s-3.243 4.625-3.243 6.417c0 1.79 1.453 3.243 3.243 3.243z"/>
</svg>
